PathFileType	4	(X/Y/Z)	/Users/itak/Documents/Research/Walk-IL/dataset/trc/00170_00008.trc
DataRate	CameraRate	NumFrames	NumMarkers	Units	OrigDataRate	OrigDataStartFrame	OrigNumFrames
100.000000	100.000000	4	53	mm	100.000000	144	577
Frame#	Time	RPSI			LPSI			L3			STRN			T10			C7			CLAV			RBAK			LBAK			LSHO			LUPA			LAEL			LAOL			LWTS			LWPS			LFRA			LIFD			LHPS			LHTS			RSHO			RUPA			RAEL			RAOL			RWTS			RWPS			RFRA			RIFD			RHTS			RHPS			RBHD			LFHD			RFHD			LBHD			LHIP			RHIP			RASI			LASI			LKNE			LTHI			LANK			LTIP			LTOE			LMT1			LMT5			LHEE			RKNE			RTHI			RANK			RTIP			RTOE			RMT1			RMT5			RHEE			
		X1	Y1	Z1	X2	Y2	Z2	X3	Y3	Z3	X4	Y4	Z4	X5	Y5	Z5	X6	Y6	Z6	X7	Y7	Z7	X8	Y8	Z8	X9	Y9	Z9	X10	Y10	Z10	X11	Y11	Z11	X12	Y12	Z12	X13	Y13	Z13	X14	Y14	Z14	X15	Y15	Z15	X16	Y16	Z16	X17	Y17	Z17	X18	Y18	Z18	X19	Y19	Z19	X20	Y20	Z20	X21	Y21	Z21	X22	Y22	Z22	X23	Y23	Z23	X24	Y24	Z24	X25	Y25	Z25	X26	Y26	Z26	X27	Y27	Z27	X28	Y28	Z28	X29	Y29	Z29	X30	Y30	Z30	X31	Y31	Z31	X32	Y32	Z32	X33	Y33	Z33	X34	Y34	Z34	X35	Y35	Z35	X36	Y36	Z36	X37	Y37	Z37	X38	Y38	Z38	X39	Y39	Z39	X40	Y40	Z40	X41	Y41	Z41	X42	Y42	Z42	X43	Y43	Z43	X44	Y44	Z44	X45	Y45	Z45	X46	Y46	Z46	X47	Y47	Z47	X48	Y48	Z48	X49	Y49	Z49	X50	Y50	Z50	X51	Y51	Z51	X52	Y52	Z52	X53	Y53	Z53	

145	1.44	755.3169555664062	1064.963256835938	306.1447143554688	744.1244506835938	1071.578125	183.7861938476562	753.9566040039062	1108.232666015625	249.4402313232422	1034.088012695312	1286.414184570312	227.1595306396484	740.4091796875	1274.069458007812	246.9331665039062	837.71728515625	1534.363159179688	235.6673889160156	1019.053161621094	1403.189086914062	223.5334320068359	755.2537841796875	1364.78955078125	344.9061584472656	820.7181396484375	1514.278198242188	135.521484375	888.0348510742188	1493.6611328125	51.80983734130859	834.0166015625	1368.0654296875	-19.17969131469727	824.056396484375	1152.0947265625	-46.13559722900391	790.4909057617188	1134.250854492188	33.56021118164062	955.2103271484375	931.36962890625	-44.38615417480469	868.6580810546875	900.8604125976562	-69.02717590332031	840.205322265625	1041.401611328125	-65.82300567626953	992.2659912109375	748.4959106445312	-28.94497299194336	897.6989135742188	833.5321044921875	-71.24402618408203	969.1002807617188	853.9308471679688	-68.49029541015625	908.0405883789062	1496.46142578125	411.8291625976562	882.8482666015625	1431.203491210938	480.0882263183594	836.4605102539062	1146.0205078125	532.7305908203125	832.6065063476562	1137.990234375	436.0156555175781	967.1370849609375	914.9105834960938	511.1985473632812	893.8170776367188	899.2688598632812	558.3511352539062	857.8402099609375	1071.807495117188	550.3787841796875	977.7142333984375	730.6884155273438	480.6513671875	992.5565185546875	821.4900512695312	518.6752319335938	920.850830078125	815.6504516601562	553.766357421875	1015.730651855469	1683.981079101562	298.4183959960938	1145.9541015625	1613.380126953125	139.2841186523438	1170.124145507812	1610.054077148438	265.9552001953125	989.0786743164062	1698.444091796875	164.8314208984375	832.012451171875	999.9814453125	53.3101806640625	917.0508422851562	1013.467102050781	414.2013854980469	993.1185913085938	1036.067016601562	351.8492736816406	959.6787719726562	1033.08642578125	94.60950469970703	904.8776245117188	500.4252014160156	49.51512145996094	884.640869140625	643.467529296875	31.42485618591309	801.8685302734375	40.01759719848633	26.14921188354492	856.708740234375	276.2359924316406	25.83490562438965	1021.390625	37.27510833740234	33.1102294921875	976.635498046875	39.64459991455078	84.84054565429688	906.026123046875	30.03141212463379	-22.94634056091309	757.6691284179688	40.41950607299805	100.0123977661133	951.8630981445312	514.1918334960938	372.7171020507812	979.9279174804688	783.7618408203125	411.7755737304688	834.3449096679688	38.6488151550293	368.0740051269531	957.4058227539062	390.9595947265625	352.4548950195312	1058.596313476562	39.63129806518555	332.2516174316406	1001.537719726562	35.3148307800293	287.0335083007812	946.6251220703125	34.87466049194336	403.0599365234375	782.1013793945312	38.14684677124023	300.626953125	
146	1.45	753.4559936523438	1065.9755859375	308.0086059570312	741.6521606445312	1072.592895507812	185.8386688232422	752.285888671875	1108.899291992188	251.7601470947266	1033.443725585938	1285.772827148438	227.9545135498047	739.644775390625	1275.018188476562	249.4967803955078	838.4424438476562	1534.706298828125	238.3212890625	1019.047729492188	1402.643798828125	224.7761688232422	755.6458740234375	1365.420166015625	347.6138916015625	820.7547607421875	1515.05322265625	138.2308502197266	887.5045166015625	1494.339965820312	54.07811737060547	832.5515747070312	1369.136108398438	-16.84012985229492	821.6185913085938	1153.234252929688	-44.11742782592773	788.5325317382812	1135.224731445312	35.7277717590332	953.1270141601562	932.7183227539062	-43.26219177246094	866.5105590820312	902.0653686523438	-67.72151184082031	837.7705688476562	1042.54248046875	-64.05726623535156	990.49365234375	749.9246215820312	-28.24758529663086	895.71337890625	834.7914428710938	-70.12553405761719	967.079345703125	855.3096923828125	-67.49759674072266	909.5930786132812	1496.004638671875	413.9288330078125	884.498779296875	1430.77001953125	482.2076110839844	837.11962890625	1145.76123046875	534.8194580078125	832.57080078125	1137.867065429688	438.1416015625	966.9201049804688	914.26171875	512.1056518554688	893.8325805664062	898.7489013671875	559.65869140625	858.353271484375	1071.417114257812	552.221435546875	976.7969360351562	730.0677490234375	481.1871337890625	992.0843505859375	820.7423095703125	519.2715454101562	920.5838012695312	815.0630493164062	554.7724609375	1016.855041503906	1683.421142578125	300.4773864746094	1146.700439453125	1612.677734375	141.1467132568359	1171.042724609375	1609.146728515625	267.7406311035156	990.1381225585938	1698.174072265625	166.9347076416016	828.1962280273438	1000.483581542969	54.6556396484375	915.815185546875	1013.43505859375	414.8873901367188	991.6934814453125	1035.547119140625	352.1546936035156	956.2671508789062	1033.07373046875	95.13272094726562	906.2218627929688	500.9688110351562	48.99802780151367	883.6353149414062	643.857666015625	31.47561264038086	801.9631958007812	40.1524543762207	26.21958351135254	857.3798828125	276.4217529296875	25.6234188079834	1021.383850097656	37.27726745605469	33.00182723999023	976.7112426757812	39.76164245605469	84.73584747314453	906.1272583007812	30.057861328125	-22.91207122802734	757.9253540039062	40.64749908447266	100.1749496459961	950.7089233398438	514.2582397460938	373.0768432617188	978.4111328125	783.7664184570312	412.2190246582031	834.3532104492188	38.62859344482422	368.0932922363281	956.6001586914062	391.0850830078125	352.6650390625	1058.580688476562	39.62356567382812	332.23974609375	1001.522644042969	35.2725715637207	287.0268859863281	946.6235961914062	34.90316009521484	403.0152282714844	782.0927124023438	38.11942672729492	300.6676635742188	
147	1.46	751.55859375	1067.004760742188	309.8543395996094	739.1135864257812	1073.56689453125	187.9043121337891	750.59228515625	1109.557495117188	253.938232421875	1032.761840820312	1285.069946289062	228.6539306640625	738.8181762695312	1275.954956054688	252.0409393310547	839.19775390625	1535.013427734375	240.93408203125	1019.025451660156	1402.03466796875	225.9362030029297	756.0165405273438	1366.039672851562	350.2906799316406	820.7919311523438	1515.810791015625	140.9043121337891	886.9671020507812	1494.990844726562	56.30245590209961	831.0391845703125	1370.196166992188	-14.5411205291748	819.0852661132812	1154.362548828125	-42.10155487060547	786.4924926757812	1136.193969726562	37.90394973754883	950.8984375	934.0350341796875	-42.1770133972168	864.2134399414062	903.2592163085938	-66.44940948486328	835.2137451171875	1043.679931640625	-62.30290603637695	988.555908203125	751.3511962890625	-27.63011360168457	893.5665283203125	836.0335083007812	-69.05612182617188	964.9017944335938	856.665283203125	-66.57197570800781	911.2117919921875	1495.483764648438	415.9649353027344	886.2399291992188	1430.269653320312	484.2729187011719	837.8500366210938	1145.458129882812	536.9166870117188	832.5656127929688	1137.688720703125	440.2872314453125	966.720703125	913.5580444335938	512.9898071289062	893.8911743164062	898.187255859375	560.9757690429688	858.9336547851562	1070.984497070312	554.0687866210938	975.8521118164062	729.3877563476562	481.7142333984375	991.6342163085938	819.9413452148438	519.8441162109375	920.3411865234375	814.4306030273438	555.7891235351562	1017.981018066406	1682.817138671875	302.5014953613281	1147.464599609375	1611.946655273438	142.9638061523438	1171.960205078125	1608.19873046875	269.48486328125	991.2021484375	1697.851928710938	168.9859161376953	824.2445678710938	1000.947937011719	56.00870895385742	914.5651245117188	1013.392761230469	415.5129089355469	990.221435546875	1034.98876953125	352.37890625	952.7499389648438	1033.020751953125	95.58071136474609	907.6007690429688	501.5766296386719	48.37619781494141	882.7335815429688	644.2820434570312	31.53948402404785	802.0950927734375	40.30157089233398	26.34312057495117	858.09033203125	276.6799926757812	25.37043380737305	1021.39599609375	37.34363174438477	32.86324310302734	976.8306884765625	39.92793273925781	84.59299468994141	906.2645263671875	30.11231231689453	-22.84245872497559	758.2442016601562	40.92225646972656	100.4022598266602	949.5366821289062	514.3233642578125	373.3838806152344	976.8501586914062	783.7679443359375	412.5613403320312	834.3695678710938	38.63030624389648	368.1095581054688	955.7741088867188	391.2114562988281	352.8259582519531	1058.565795898438	39.61572647094727	332.2196655273438	1001.510986328125	35.22202301025391	287.0120544433594	946.623046875	34.95249557495117	402.9382629394531	782.082275390625	38.09402847290039	300.6905517578125	
148	1.47	749.6929321289062	1068.013305664062	311.6939697265625	736.5308837890625	1074.493774414062	189.9818878173828	748.8709106445312	1110.213500976562	255.9282379150391	1032.033447265625	1284.304077148438	229.2552642822266	737.9111328125	1276.877319335938	254.5481567382812	839.96630859375	1535.281372070312	243.4895324707031	1018.970275878906	1401.3583984375	227.0046234130859	756.3619384765625	1366.6376953125	352.9242858886719	820.8228149414062	1516.540283203125	143.5215301513672	886.4190673828125	1495.60107421875	58.46670532226562	829.4857177734375	1371.229858398438	-12.29662418365479	816.4602661132812	1155.466918945312	-40.10106658935547	784.3509521484375	1137.164428710938	40.07495880126953	948.5186157226562	935.2947998046875	-41.13067245483398	861.7686157226562	904.4268188476562	-65.21100616455078	832.5353393554688	1044.80029296875	-60.57454299926758	986.4608764648438	752.7627563476562	-27.09752082824707	891.2569580078125	837.245849609375	-68.04144287109375	962.5638427734375	857.9829711914062	-65.72389984130859	912.8782348632812	1494.896728515625	417.9231872558594	888.0548095703125	1429.696899414062	486.27001953125	838.6437377929688	1145.105224609375	539.0130615234375	832.579833984375	1137.4453125	442.4456176757812	966.5431518554688	912.796142578125	513.8500366210938	893.9894409179688	897.5807495117188	562.2994384765625	859.5755615234375	1070.504516601562	555.9122314453125	974.8798217773438	728.6434936523438	482.2372131347656	991.2061157226562	819.0850219726562	520.3946533203125	920.1250610351562	813.75048828125	556.8162231445312	1019.101013183594	1682.165283203125	304.4793701171875	1148.237182617188	1611.1875	144.7237091064453	1172.86474609375	1607.205444335938	271.1797180175781	992.2579345703125	1697.474609375	170.9771270751953	820.176025390625	1001.385498046875	57.35617828369141	913.3096923828125	1013.334716796875	416.08447265625	988.7090454101562	1034.394165039062	352.5261840820312	949.1522827148438	1032.932983398438	95.95344543457031	908.9539184570312	502.2522277832031	47.66508102416992	881.9183349609375	644.7477416992188	31.61796188354492	802.258056640625	40.45167541503906	26.53388404846191	858.7991333007812	277.02587890625	25.08454704284668	1021.409545898438	37.53640365600586	32.69358062744141	976.9833374023438	40.17089080810547	84.4080810546875	906.4284057617188	30.20920372009277	-22.71771240234375	758.6089477539062	41.24349212646484	100.7021255493164	948.3671264648438	514.3895874023438	373.6370849609375	975.258056640625	783.7666015625	412.8060302734375	834.3947143554688	38.6533203125	368.125	954.9434814453125	391.3431396484375	352.9487915039062	1058.554321289062	39.60706329345703	332.1921691894531	1001.504821777344	35.16671752929688	286.989501953125	946.624267578125	35.01727676391602	402.8347778320312	782.0712280273438	38.07126235961914	300.7002868652344	
